<svg width="25" height="26" viewBox="0 0 25 26" fill="none" xmlns="http://www.w3.org/2000/svg">
<path d="M12.5049 6.94189C9.39941 6.94189 6.89453 9.44678 6.89453 12.5522C6.89453 15.6577 9.39941 18.1626 12.5049 18.1626C15.6104 18.1626 18.1152 15.6577 18.1152 12.5522C18.1152 9.44678 15.6104 6.94189 12.5049 6.94189ZM12.5049 16.1997C10.498 16.1997 8.85742 14.564 8.85742 12.5522C8.85742 10.5405 10.4932 8.90479 12.5049 8.90479C14.5166 8.90479 16.1523 10.5405 16.1523 12.5522C16.1523 14.564 14.5117 16.1997 12.5049 16.1997ZM19.6533 6.7124C19.6533 7.43994 19.0674 8.021 18.3447 8.021C17.6172 8.021 17.0361 7.43506 17.0361 6.7124C17.0361 5.98975 17.6221 5.40381 18.3447 5.40381C19.0674 5.40381 19.6533 5.98975 19.6533 6.7124ZM23.3691 8.04053C23.2861 6.2876 22.8857 4.73486 21.6016 3.45557C20.3223 2.17627 18.7695 1.77588 17.0166 1.68799C15.21 1.58545 9.79492 1.58545 7.98828 1.68799C6.24023 1.771 4.6875 2.17139 3.40332 3.45068C2.11914 4.72998 1.72363 6.28271 1.63574 8.03564C1.5332 9.84229 1.5332 15.2573 1.63574 17.064C1.71875 18.8169 2.11914 20.3696 3.40332 21.6489C4.6875 22.9282 6.23535 23.3286 7.98828 23.4165C9.79492 23.519 15.21 23.519 17.0166 23.4165C18.7695 23.3335 20.3223 22.9331 21.6016 21.6489C22.8809 20.3696 23.2812 18.8169 23.3691 17.064C23.4717 15.2573 23.4717 9.84717 23.3691 8.04053ZM21.0352 19.0024C20.6543 19.9595 19.917 20.6968 18.9551 21.0825C17.5146 21.6538 14.0967 21.522 12.5049 21.522C10.9131 21.522 7.49023 21.6489 6.05469 21.0825C5.09766 20.7017 4.36035 19.9644 3.97461 19.0024C3.40332 17.562 3.53516 14.144 3.53516 12.5522C3.53516 10.9604 3.4082 7.5376 3.97461 6.10205C4.35547 5.14502 5.09277 4.40771 6.05469 4.02197C7.49512 3.45068 10.9131 3.58252 12.5049 3.58252C14.0967 3.58252 17.5195 3.45557 18.9551 4.02197C19.9121 4.40283 20.6494 5.14014 21.0352 6.10205C21.6064 7.54248 21.4746 10.9604 21.4746 12.5522C21.4746 14.144 21.6064 17.5669 21.0352 19.0024Z" fill="#D52665"/>
</svg>
