<svg width="25" height="26" viewBox="0 0 25 26" fill="none" xmlns="http://www.w3.org/2000/svg">
<path d="M22.4302 7.46504C22.446 7.68711 22.446 7.90923 22.446 8.1313C22.446 14.9047 17.2906 22.7093 7.86802 22.7093C4.96509 22.7093 2.26841 21.8686 0 20.4092C0.412451 20.4568 0.808984 20.4727 1.2373 20.4727C3.63257 20.4727 5.83755 19.6637 7.59834 18.2836C5.3458 18.236 3.45811 16.7607 2.80771 14.7303C3.125 14.7778 3.44224 14.8096 3.77539 14.8096C4.2354 14.8096 4.69546 14.7461 5.12373 14.6351C2.77603 14.1592 1.01519 12.097 1.01519 9.60654V9.54311C1.69727 9.92383 2.49048 10.1618 3.33115 10.1935C1.95107 9.27339 1.04692 7.70298 1.04692 5.92632C1.04692 4.97456 1.30068 4.1021 1.74487 3.34067C4.26709 6.4498 8.05835 8.48022 12.3096 8.70234C12.2303 8.32163 12.1827 7.9251 12.1827 7.52852C12.1827 4.70488 14.4669 2.40479 17.3064 2.40479C18.7816 2.40479 20.1141 3.02344 21.05 4.0228C22.208 3.80073 23.3184 3.37241 24.302 2.7855C23.9212 3.97524 23.1122 4.97461 22.0494 5.60908C23.0805 5.4981 24.0799 5.2125 24.9999 4.81597C24.302 5.83115 23.4295 6.7353 22.4302 7.46504Z" fill="#0F53B8"/>
</svg>
