<svg width="25" height="26" viewBox="0 0 25 26" fill="none" xmlns="http://www.w3.org/2000/svg">
<path d="M20.1611 4.79834C18.1152 2.74756 15.3906 1.61963 12.4951 1.61963C6.51855 1.61963 1.65527 6.48291 1.65527 12.4595C1.65527 14.3687 2.15332 16.2339 3.10059 17.8794L1.5625 23.4946L7.30957 21.9858C8.8916 22.8501 10.6738 23.3042 12.4902 23.3042H12.4951C18.4668 23.3042 23.4375 18.4409 23.4375 12.4644C23.4375 9.56885 22.207 6.84912 20.1611 4.79834ZM12.4951 21.478C10.874 21.478 9.28711 21.0435 7.90527 20.2231L7.57812 20.0278L4.16992 20.9214L5.07812 17.5962L4.86328 17.2544C3.95996 15.8188 3.48633 14.1636 3.48633 12.4595C3.48633 7.49365 7.5293 3.45068 12.5 3.45068C14.9072 3.45068 17.168 4.38818 18.8672 6.09229C20.5664 7.79639 21.6113 10.0571 21.6064 12.4644C21.6064 17.4351 17.4609 21.478 12.4951 21.478ZM17.4365 14.73C17.168 14.5933 15.835 13.939 15.5859 13.8511C15.3369 13.7583 15.1563 13.7144 14.9756 13.9878C14.7949 14.2612 14.2773 14.8667 14.1162 15.0522C13.96 15.2329 13.7988 15.2573 13.5303 15.1206C11.9385 14.3247 10.8936 13.6997 9.84375 11.8979C9.56543 11.4194 10.1221 11.4536 10.6396 10.4185C10.7275 10.2378 10.6836 10.0815 10.6152 9.94482C10.5469 9.80811 10.0049 8.4751 9.78027 7.93311C9.56055 7.40576 9.33594 7.479 9.16992 7.46924C9.01367 7.45947 8.83301 7.45947 8.65234 7.45947C8.47168 7.45947 8.17871 7.52783 7.92969 7.79639C7.68066 8.06982 6.98242 8.72412 6.98242 10.0571C6.98242 11.3901 7.9541 12.6792 8.08594 12.8599C8.22266 13.0405 9.99512 15.7749 12.7148 16.9517C14.4336 17.6938 15.1074 17.7573 15.9668 17.6304C16.4893 17.5522 17.5684 16.9761 17.793 16.3413C18.0176 15.7065 18.0176 15.1646 17.9492 15.0522C17.8857 14.9302 17.7051 14.8618 17.4365 14.73Z" fill="#2D8B00"/>
</svg>
