<svg width="25" height="26" viewBox="0 0 25 26" fill="none" xmlns="http://www.w3.org/2000/svg">
<path d="M23.8566 6.83165C23.5839 5.80517 22.7807 4.99675 21.7609 4.7224C19.9124 4.22388 12.5 4.22388 12.5 4.22388C12.5 4.22388 5.08767 4.22388 3.2391 4.7224C2.21927 4.99679 1.41606 5.80517 1.14344 6.83165C0.648132 8.69219 0.648132 12.574 0.648132 12.574C0.648132 12.574 0.648132 16.4559 1.14344 18.3165C1.41606 19.3429 2.21927 20.1177 3.2391 20.392C5.08767 20.8905 12.5 20.8905 12.5 20.8905C12.5 20.8905 19.9123 20.8905 21.7609 20.392C22.7807 20.1177 23.5839 19.3429 23.8566 18.3165C24.3519 16.4559 24.3519 12.574 24.3519 12.574C24.3519 12.574 24.3519 8.69219 23.8566 6.83165ZM10.0757 16.0985V9.04961L16.271 12.5741L10.0757 16.0985Z" fill="#EB0000"/>
</svg>
